<svg width="181" height="36" viewBox="0 0 181 36" fill="none" xmlns="http://www.w3.org/2000/svg">
<path d="M161.205 8.54297V26.8087H158V25.3098C157.168 26.3333 155.962 26.845 154.385 26.845C153.295 26.845 152.308 26.5967 151.426 26.1001C150.544 25.6035 149.852 24.8919 149.35 23.9713C148.847 23.0508 148.595 21.9818 148.595 20.7676C148.595 19.5533 148.844 18.4874 149.35 17.5638C149.852 16.6432 150.544 15.9316 151.426 15.435C152.308 14.9384 153.295 14.6901 154.385 14.6901C155.861 14.6901 157.017 15.1655 157.848 16.1163V8.54297H161.205ZM157.07 23.1507C157.629 22.5572 157.911 21.7638 157.911 20.7706C157.911 19.7774 157.632 18.984 157.07 18.3905C156.512 17.797 155.808 17.5032 154.961 17.5032C154.1 17.5032 153.39 17.8 152.831 18.3905C152.273 18.984 151.993 19.7774 151.993 20.7706C151.993 21.7638 152.273 22.5572 152.831 23.1507C153.39 23.7442 154.103 24.0379 154.961 24.0379C155.808 24.0379 156.512 23.7412 157.07 23.1507Z" fill="#286BFF"/>
<path d="M120.33 26.8089C117.282 26.8089 114.869 25.8853 113.09 24.0351L115.069 21.2099C116.539 22.7815 118.354 23.5658 120.511 23.5658C121.452 23.5658 122.183 23.378 122.706 23.0026C123.229 22.6271 123.49 22.1698 123.49 21.6278C123.49 21.1554 123.247 20.7648 122.76 20.4498C122.272 20.1349 121.663 19.9108 120.936 19.7685C120.208 19.6292 119.418 19.4294 118.562 19.1659C117.706 18.9055 116.913 18.6087 116.188 18.2756C115.461 17.9456 114.855 17.4217 114.364 16.704C113.877 15.9894 113.634 15.1173 113.634 14.0877C113.634 12.5888 114.225 11.3261 115.404 10.3056C116.587 9.28509 118.158 8.77637 120.128 8.77637C122.849 8.77637 125.074 9.58791 126.803 11.211L124.774 13.9333C123.422 12.6584 121.761 12.0225 119.792 12.0225C119.022 12.0225 118.422 12.18 117.995 12.4949C117.567 12.8098 117.353 13.2368 117.353 13.7758C117.353 14.1937 117.597 14.548 118.084 14.8357C118.571 15.1233 119.18 15.3383 119.908 15.4776C120.635 15.6169 121.423 15.8228 122.269 16.0923C123.116 16.3618 123.903 16.6677 124.631 17.0068C125.359 17.346 125.965 17.8789 126.455 18.6027C126.945 19.3264 127.186 20.1955 127.186 21.2069C127.186 22.8814 126.601 24.235 125.427 25.2646C124.254 26.2941 122.555 26.8089 120.33 26.8089Z" fill="#286BFF"/>
<path d="M132.04 26.8088C130.893 26.8088 130.02 26.512 129.423 25.9185C128.822 25.325 128.522 24.4711 128.522 23.3537V16.7614H126.47V13.8574H128.522V10.4023H131.808V13.8574H134.324V16.7614H131.808V22.4664C131.808 22.8692 131.909 23.1993 132.117 23.4597C132.322 23.7231 132.595 23.8533 132.94 23.8533C133.454 23.8533 133.828 23.7322 134.069 23.4869L134.761 26.0003C134.164 26.5393 133.255 26.8088 132.04 26.8088Z" fill="#286BFF"/>
<path d="M147.267 26.8482H144.005V24.8981C142.891 26.173 141.439 26.8089 139.642 26.8089C138.308 26.8089 137.307 26.4606 136.638 25.7611C135.97 25.0647 135.637 24.0866 135.637 22.8299V13.8545H138.899V21.5217C138.899 23.0752 139.659 23.8504 141.183 23.8504C142.33 23.8504 143.272 23.3719 144.008 22.412V13.8545H147.27V26.8482H147.267Z" fill="#286BFF"/>
<path d="M164.5 12.4946C163.968 12.4946 163.511 12.2978 163.127 11.9071C162.741 11.5135 162.551 11.0471 162.551 10.5081C162.551 9.96912 162.744 9.50582 163.127 9.12124C163.514 8.73667 163.971 8.5459 164.5 8.5459C165.046 8.5459 165.51 8.73667 165.887 9.12124C166.264 9.50582 166.451 9.96912 166.451 10.5081C166.451 11.0502 166.264 11.5165 165.887 11.9071C165.51 12.2978 165.046 12.4946 164.5 12.4946ZM166.143 26.8086H162.881V13.8542H166.143V26.8086Z" fill="#286BFF"/>
<path d="M178.572 24.8855C177.375 26.1694 175.782 26.8084 173.798 26.8084C171.814 26.8084 170.224 26.1664 169.036 24.8855C167.845 23.6046 167.251 22.03 167.251 20.1616C167.251 18.2963 167.845 16.7247 169.036 15.4498C170.224 14.175 171.814 13.5391 173.798 13.5391C175.782 13.5391 177.375 14.175 178.572 15.4498C179.769 16.7247 180.369 18.2932 180.369 20.1616C180.369 22.03 179.769 23.6046 178.572 24.8855ZM171.487 22.793C172.051 23.4986 172.821 23.8529 173.798 23.8529C174.772 23.8529 175.548 23.4986 176.121 22.793C176.694 22.0875 176.98 21.2093 176.98 20.1616C176.98 19.132 176.691 18.266 176.121 17.5574C175.548 16.8518 174.772 16.4976 173.798 16.4976C172.824 16.4976 172.051 16.8518 171.487 17.5574C170.922 18.263 170.64 19.132 170.64 20.1616C170.637 21.2093 170.922 22.0845 171.487 22.793Z" fill="#286BFF"/>
<path d="M55.4333 26.4932H46.1411V9.03906H55.151C56.7077 9.03906 57.9197 9.47209 58.7841 10.3351C59.6486 11.1981 60.0793 12.2489 60.0793 13.4874C60.0793 14.5533 59.7971 15.4405 59.2327 16.1582C58.6683 16.8729 57.9672 17.318 57.1265 17.4936C58.0504 17.6329 58.8287 18.1114 59.4614 18.932C60.0942 19.7526 60.412 20.7034 60.412 21.7845C60.412 23.1441 59.9754 24.2706 59.102 25.1609C58.2316 26.0511 57.0077 26.4932 55.4333 26.4932ZM54.3549 16.028C54.9698 16.028 55.46 15.8554 55.8194 15.5041C56.1789 15.1559 56.3571 14.7017 56.3571 14.1445C56.3571 13.5873 56.1729 13.1301 55.8046 12.7697C55.4362 12.4124 54.952 12.2337 54.3549 12.2337H49.7861V16.028H54.3549ZM54.4856 23.2743C55.1689 23.2743 55.7095 23.0957 56.1016 22.7384C56.4938 22.381 56.6928 21.8874 56.6928 21.2606C56.6928 20.6853 56.4967 20.2008 56.1016 19.8071C55.7066 19.4135 55.1689 19.2197 54.4856 19.2197H49.7861V23.2743H54.4856Z" fill="#15151B"/>
<path d="M64.7163 26.8477H61.4575V13.854H64.7193V15.58C65.1827 14.9865 65.7709 14.499 66.4898 14.1144C67.2087 13.7298 67.9365 13.5391 68.6732 13.5391V16.7852C68.4504 16.7337 68.1504 16.7065 67.7731 16.7065C67.2265 16.7065 66.6442 16.8458 66.0264 17.1244C65.4114 17.403 64.9747 17.7421 64.7163 18.1449V26.8477Z" fill="#15151B"/>
<path d="M94.7705 26.8477H91.5087V18.8534C91.5087 17.2818 90.7482 16.4976 89.2243 16.4976C88.042 16.4976 87.1033 16.9942 86.3992 17.9904V26.8477H83.1375V13.854H86.3992V15.5013C87.4776 14.1931 88.9242 13.5391 90.7363 13.5391C92.0702 13.5391 93.0772 13.8964 93.7515 14.611C94.4288 15.3257 94.7645 16.3128 94.7645 17.5695V26.8477H94.7705Z" fill="#15151B"/>
<path d="M108.67 26.8475H104.585L101.127 21.627L99.6392 23.2501V26.8475H96.3774V9.03906H99.6392V19.4801L104.339 13.8538H108.343L103.439 19.5861L108.67 26.8475Z" fill="#15151B"/>
<path d="M110.809 12.4946C110.277 12.4946 109.82 12.2978 109.436 11.9071C109.05 11.5135 108.86 11.0471 108.86 10.5081C108.86 9.96912 109.053 9.50582 109.436 9.12124C109.823 8.73667 110.28 8.5459 110.809 8.5459C111.355 8.5459 111.819 8.73667 112.196 9.12124C112.573 9.50582 112.761 9.96912 112.761 10.5081C112.761 11.0502 112.573 11.5165 112.196 11.9071C111.816 12.2978 111.355 12.4946 110.809 12.4946ZM112.452 26.848H109.19V13.8542H112.452V26.848Z" fill="#15151B"/>
<path d="M69.6595 17.0394C70.1497 16.0734 70.8121 15.3285 71.6528 14.8076C72.4905 14.2868 73.4293 14.0264 74.466 14.0264C75.3721 14.0264 76.1622 14.2141 76.8425 14.5835C77.5198 14.956 78.0634 15.4254 78.4734 15.9886V14.2262H81.5599V26.8445H78.4734V24.7823C78.0783 25.3637 77.5347 25.8422 76.8425 26.2207C76.1504 26.5992 75.3513 26.79 74.4452 26.79C73.4233 26.79 72.4935 26.5235 71.6528 25.9875C70.8121 25.4515 70.1497 24.6975 69.6595 23.7225C69.1694 22.7474 68.9258 21.627 68.9258 20.3643C68.9258 19.1167 69.1694 18.0084 69.6595 17.0394ZM78.0337 18.4565C77.7426 17.9145 77.3475 17.4966 76.8514 17.2059C76.3553 16.9152 75.8236 16.7699 75.2532 16.7699C74.6829 16.7699 74.1571 16.9122 73.6758 17.1938C73.1946 17.4784 72.8025 17.8903 72.5054 18.4323C72.2054 18.9743 72.0568 19.6193 72.0568 20.3612C72.0568 21.1062 72.2054 21.7572 72.5054 22.3144C72.8054 22.8716 73.1976 23.3015 73.6877 23.5983C74.1779 23.8951 74.6977 24.0465 75.2532 24.0465C75.8236 24.0465 76.3553 23.9011 76.8514 23.6104C77.3475 23.3197 77.7426 22.9049 78.0337 22.3598C78.3249 21.8178 78.4704 21.1667 78.4704 20.4067C78.4704 19.6526 78.3249 19.0016 78.0337 18.4565Z" fill="#15151B"/>
<path d="M35.3547 13.7977V2.92506C35.3547 1.31164 34.07 0 32.4897 0H2.86502C1.28472 0 0 1.31164 0 2.92506V19.0323L26.748 23.4214V26.8275C26.748 27.9509 25.8525 28.8681 24.7492 28.8681H9.42031V23.7321L0 22.1844V33.0749C0 34.6884 1.28472 36 2.86502 36H12.297L12.7448 35.988H32.7472L32.7677 35.9851C34.2163 35.8416 35.3518 34.5629 35.3518 33.072V18.0045L35.3372 16.9528L9.42031 12.5667V7.11993H24.7521C25.8525 7.11993 26.7509 8.03419 26.7509 9.16059V12.3366L35.3547 13.7977Z" fill="#286BFF"/>
</svg>
