<svg width="20" height="20" viewBox="0 0 20 20" fill="none" xmlns="http://www.w3.org/2000/svg">
<path fill-rule="evenodd" clip-rule="evenodd" d="M4.16666 3.33341H15.8333C16.2936 3.33341 16.6667 3.70651 16.6667 4.16675V15.8334C16.6667 16.2937 16.2936 16.6667 15.8333 16.6667H4.16666C3.70642 16.6667 3.33332 16.2937 3.33332 15.8334V4.16675C3.33332 3.70651 3.70641 3.33341 4.16666 3.33341ZM1.66666 4.16675C1.66666 2.78604 2.78595 1.66675 4.16666 1.66675H15.8333C17.2141 1.66675 18.3333 2.78604 18.3333 4.16675V15.8334C18.3333 17.2142 17.2141 18.3334 15.8333 18.3334H4.16666C2.78595 18.3334 1.66666 17.2142 1.66666 15.8334V4.16675ZM9.99999 10.0001C7.69881 10.0001 5.83332 7.76151 5.83332 5.00008H7.49999C7.49999 7.13846 8.89091 8.33342 9.99999 8.33342C11.1091 8.33342 12.5 7.13846 12.5 5.00008H14.1667C14.1667 7.76151 12.3012 10.0001 9.99999 10.0001Z" fill="#15151B"/>
</svg>
