<svg width="20" height="20" viewBox="0 0 20 20" fill="none" xmlns="http://www.w3.org/2000/svg">
<path d="M8.33333 10C7.87308 10 7.5 10.3731 7.5 10.8333C7.5 11.2936 7.87308 11.6667 8.33333 11.6667H11.6667C12.1268 11.6667 12.5 11.2936 12.5 10.8333C12.5 10.3731 12.1268 10 11.6667 10H8.33333Z" fill="#15151B"/>
<path fill-rule="evenodd" clip-rule="evenodd" d="M3.33334 1.66675C1.95263 1.66675 0.833344 2.78603 0.833344 4.16675V15.8334C0.833344 17.2142 1.95263 18.3334 3.33334 18.3334H16.6667C18.0474 18.3334 19.1667 17.2142 19.1667 15.8334V4.16675C19.1667 2.78603 18.0474 1.66675 16.6667 1.66675H3.33334ZM16.6667 3.33341H3.33334C2.87309 3.33341 2.50001 3.70649 2.50001 4.16675V6.66675H17.5V4.16675C17.5 3.70649 17.1268 3.33341 16.6667 3.33341ZM2.50001 15.8334V8.33342H17.5V15.8334C17.5 16.2937 17.1268 16.6667 16.6667 16.6667H3.33334C2.87309 16.6667 2.50001 16.2937 2.50001 15.8334Z" fill="#15151B"/>
</svg>
