<svg width="20" height="20" viewBox="0 0 20 20" fill="none" xmlns="http://www.w3.org/2000/svg">
<path d="M9.12477 13.0055C8.79933 13.3309 8.27168 13.3309 7.94624 13.0055L5.58924 10.6484C5.26381 10.323 5.26381 9.79537 5.58925 9.46994C5.91469 9.1445 6.44232 9.14451 6.76776 9.46995L8.5355 11.2378L12.6603 7.11294C12.9858 6.7875 13.5134 6.7875 13.8388 7.11294C14.1643 7.43838 14.1643 7.96601 13.8388 8.29145L9.12477 13.0055Z" fill="#15151B"/>
<path fill-rule="evenodd" clip-rule="evenodd" d="M0.833336 9.99992C0.833336 4.93731 4.93739 0.833252 10 0.833252C15.0626 0.833252 19.1667 4.93731 19.1667 9.99992C19.1667 15.0625 15.0626 19.1666 10 19.1666C4.93739 19.1666 0.833336 15.0625 0.833336 9.99992ZM10 17.4999C5.85787 17.4999 2.5 14.1421 2.5 9.99992C2.5 5.85778 5.85787 2.49992 10 2.49992C14.1422 2.49992 17.5 5.85778 17.5 9.99992C17.5 14.1421 14.1422 17.4999 10 17.4999Z" fill="#15151B"/>
</svg>
