<svg width="20" height="20" viewBox="0 0 20 20" fill="none" xmlns="http://www.w3.org/2000/svg">
<path d="M13.6162 7.76879C13.9528 7.45499 13.9714 6.92768 13.6576 6.591C13.3438 6.25432 12.8165 6.23577 12.4798 6.54956L10.0414 8.82225L7.76871 6.38381C7.45491 6.04714 6.9276 6.02859 6.59093 6.34238C6.25424 6.65617 6.23569 7.18348 6.54949 7.52016L8.82217 9.95858L6.38374 12.2313C6.04706 12.5451 6.02851 13.0724 6.3423 13.4091C6.65609 13.7457 7.1834 13.7643 7.52009 13.4505L9.9585 11.1778L12.2313 13.6162C12.545 13.9529 13.0723 13.9715 13.409 13.6577C13.7457 13.3439 13.7643 12.8166 13.4504 12.4799L11.1778 10.0415L13.6162 7.76879Z" fill="#15151B"/>
<path fill-rule="evenodd" clip-rule="evenodd" d="M0.833332 9.99992C0.833332 4.93731 4.93739 0.833252 10 0.833252C15.0626 0.833252 19.1667 4.93731 19.1667 9.99992C19.1667 15.0625 15.0626 19.1666 10 19.1666C4.93739 19.1666 0.833332 15.0625 0.833332 9.99992ZM10 17.4999C5.85786 17.4999 2.5 14.1421 2.5 9.99992C2.5 5.85778 5.85786 2.49992 10 2.49992C14.1422 2.49992 17.5 5.85778 17.5 9.99992C17.5 14.1421 14.1422 17.4999 10 17.4999Z" fill="#15151B"/>
</svg>
