<svg width="20" height="20" viewBox="0 0 20 20" fill="none" xmlns="http://www.w3.org/2000/svg">
<path d="M15.4611 12.9463C14.7071 13.7004 13.6654 14.1667 12.5148 14.1667C10.9512 14.1667 9.58867 13.3054 8.87592 12.0312H10.8601L11.4402 10.4688H8.37425C8.357 10.315 8.34817 10.1586 8.34817 10.0001C8.34817 9.84158 8.357 9.68517 8.37425 9.53125H11.9467L12.5268 7.96883H8.876C9.58867 6.69475 10.9512 5.83341 12.5148 5.83341C13.6654 5.83341 14.7071 6.29978 15.4611 7.05381L16.6396 5.87529C15.584 4.81966 14.1257 4.16675 12.5148 4.16675C10.0075 4.16675 7.86968 5.74864 7.04489 7.96883H5.02684L4.4467 9.53125H6.70007C6.68777 9.68592 6.6815 9.84225 6.6815 10.0001C6.6815 10.1579 6.68777 10.3142 6.70006 10.4688H3.94021L3.36008 12.0312H7.04487C7.86964 14.2515 10.0075 15.8334 12.5148 15.8334C14.1257 15.8334 15.584 15.1805 16.6396 14.1248L15.4611 12.9463Z" fill="#15151B"/>
</svg>
