<svg width="20" height="20" viewBox="0 0 20 20" fill="none" xmlns="http://www.w3.org/2000/svg">
<path fill-rule="evenodd" clip-rule="evenodd" d="M13.3333 10.0001C13.3333 11.841 11.8409 13.3334 10 13.3334C8.15906 13.3334 6.66667 11.841 6.66667 10.0001C6.66667 8.15913 8.15906 6.66675 10 6.66675C11.8409 6.66675 13.3333 8.15913 13.3333 10.0001ZM11.6667 10.0001C11.6667 10.9206 10.9205 11.6667 10 11.6667C9.07951 11.6667 8.33334 10.9206 8.33334 10.0001C8.33334 9.07958 9.07951 8.33341 10 8.33341C10.9205 8.33341 11.6667 9.07958 11.6667 10.0001Z" fill="#15151B"/>
<path fill-rule="evenodd" clip-rule="evenodd" d="M9.99985 2.5C14.6594 2.5 18.5747 5.68693 19.6848 10C18.5747 14.3131 14.6594 17.5 9.99985 17.5C5.34025 17.5 1.425 14.3131 0.314896 10C1.425 5.68693 5.34025 2.5 9.99985 2.5ZM9.99985 15.8333C6.27021 15.8333 3.10929 13.3818 2.04754 10C3.10929 6.61822 6.27021 4.16667 9.99985 4.16667C13.7295 4.16667 16.8904 6.61822 17.9522 10C16.8904 13.3818 13.7295 15.8333 9.99985 15.8333Z" fill="#15151B"/>
</svg>
