<svg width="20" height="20" viewBox="0 0 20 20" fill="none" xmlns="http://www.w3.org/2000/svg">
<path fill-rule="evenodd" clip-rule="evenodd" d="M17.7196 1.91082C17.3942 1.58539 16.8666 1.58539 16.5411 1.91082L15.8141 2.63779C14.8849 2.19386 13.7381 2.35676 12.9685 3.12646L4.12964 11.9652L8.84365 16.6793L17.6825 7.8405C18.4522 7.0708 18.6151 5.92408 18.1711 4.99481L18.8981 4.26785C19.2236 3.94241 19.2236 3.41477 18.8981 3.08934L17.7196 1.91082ZM14.163 9.003L8.84365 14.3223L6.48666 11.9652L11.806 6.646L14.163 9.003ZM15.6782 7.48779L16.504 6.66199C16.8295 6.33655 16.8295 5.80891 16.504 5.48347L15.3255 4.30496C15.0001 3.97953 14.4724 3.97953 14.147 4.30496L13.3211 5.13077L15.6782 7.48779Z" fill="#15151B"/>
<path d="M1.66666 19.1252L3.43475 12.6431L8.14846 17.3574L1.66666 19.1252Z" fill="#15151B"/>
</svg>
