<svg width="20" height="20" viewBox="0 0 20 20" fill="none" xmlns="http://www.w3.org/2000/svg">
<path d="M9.99999 3.33325C9.53974 3.33325 9.16666 3.70635 9.16666 4.16659V9.16658H4.16666C3.70643 9.16658 3.33333 9.53967 3.33333 9.99992C3.33333 10.4602 3.70643 10.8333 4.16666 10.8333H9.16666V15.8333C9.16666 16.2935 9.53974 16.6666 9.99999 16.6666C10.4602 16.6666 10.8333 16.2935 10.8333 15.8333V10.8333H15.8333C16.2936 10.8333 16.6667 10.4602 16.6667 9.99992C16.6667 9.53967 16.2936 9.16658 15.8333 9.16658H10.8333V4.16659C10.8333 3.70635 10.4602 3.33325 9.99999 3.33325Z" fill="#15151B"/>
</svg>
