<svg width="20" height="20" viewBox="0 0 20 20" fill="none" xmlns="http://www.w3.org/2000/svg">
<path fill-rule="evenodd" clip-rule="evenodd" d="M13.3333 7.50008C13.3333 9.341 11.8409 10.8334 9.99999 10.8334C8.15904 10.8334 6.66666 9.341 6.66666 7.50008C6.66666 5.65913 8.15904 4.16675 9.99999 4.16675C11.8409 4.16675 13.3333 5.65913 13.3333 7.50008ZM11.6667 7.50008C11.6667 8.42058 10.9205 9.16675 9.99999 9.16675C9.07949 9.16675 8.33332 8.42058 8.33332 7.50008C8.33332 6.57961 9.07949 5.83341 9.99999 5.83341C10.9205 5.83341 11.6667 6.57961 11.6667 7.50008Z" fill="#15151B"/>
<path fill-rule="evenodd" clip-rule="evenodd" d="M10 0.833252C4.9374 0.833252 0.833344 4.93731 0.833344 9.99992C0.833344 15.0625 4.9374 19.1666 10 19.1666C15.0626 19.1666 19.1667 15.0625 19.1667 9.99992C19.1667 4.93731 15.0626 0.833252 10 0.833252ZM2.50001 9.99992C2.50001 11.7418 3.0938 13.3449 4.08999 14.618C5.46038 12.824 7.6219 11.6666 10.0538 11.6666C12.454 11.6666 14.591 12.7942 15.9638 14.5485C16.9275 13.2868 17.5 11.7103 17.5 9.99992C17.5 5.85778 14.1422 2.49992 10 2.49992C5.85788 2.49992 2.50001 5.85778 2.50001 9.99992ZM10 17.4999C8.20815 17.4999 6.56305 16.8715 5.27307 15.8231C6.32794 14.3176 8.07589 13.3333 10.0538 13.3333C12.007 13.3333 13.7361 14.2933 14.7948 15.7673C13.4949 16.8492 11.8234 17.4999 10 17.4999Z" fill="#15151B"/>
</svg>
