<svg width="20" height="20" viewBox="0 0 20 20" fill="none" xmlns="http://www.w3.org/2000/svg">
<path fill-rule="evenodd" clip-rule="evenodd" d="M15.2658 12.0272C17.3023 9.41179 17.1183 5.62793 14.7141 3.22362C12.1106 0.620123 7.88944 0.620123 5.28595 3.22362C2.68245 5.82712 2.68245 10.0482 5.28595 12.6517C7.69027 15.056 11.4742 15.24 14.0896 13.2035C14.1008 13.2163 14.1126 13.2288 14.1247 13.241L17.6603 16.7765C17.9857 17.102 18.5134 17.102 18.8388 16.7765C19.1642 16.451 19.1642 15.9235 18.8388 15.598L15.3033 12.0625C15.2911 12.0503 15.2786 12.0385 15.2658 12.0272ZM13.5355 4.40213C15.4882 6.35475 15.4882 9.52054 13.5355 11.4732C11.5829 13.4258 8.41708 13.4258 6.46446 11.4732C4.51184 9.52054 4.51184 6.35475 6.46446 4.40213C8.41708 2.44951 11.5829 2.44951 13.5355 4.40213Z" fill="#15151B"/>
</svg>
