<svg width="20" height="20" viewBox="0 0 20 20" fill="none" xmlns="http://www.w3.org/2000/svg">
<path d="M9.16667 12.4883C9.16667 12.9486 9.53975 13.3217 10 13.3217C10.4602 13.3217 10.8333 12.9486 10.8333 12.4883V6.52351L12.9464 8.63657C13.2718 8.96201 13.7995 8.962 14.1249 8.63656C14.4504 8.31111 14.4503 7.78348 14.1249 7.45804L10.7858 4.11893C10.3518 3.68501 9.64832 3.68501 9.21441 4.11893L5.8753 7.45804C5.54987 7.78347 5.54986 8.31111 5.8753 8.63656C6.20074 8.962 6.72839 8.96201 7.05384 8.63656L9.16667 6.5237V12.4883Z" fill="#15151B"/>
<path d="M3.33334 12.5001C3.33334 12.0398 3.70643 11.6667 4.16667 11.6667C4.62691 11.6667 5 12.0398 5 12.5001V15.0001H15V12.5001C15 12.0398 15.3731 11.6667 15.8333 11.6667C16.2936 11.6667 16.6667 12.0398 16.6667 12.5001V15.0001C16.6667 15.9206 15.9205 16.6667 15 16.6667H5C4.07953 16.6667 3.33334 15.9206 3.33334 15.0001V12.5001Z" fill="#15151B"/>
</svg>
